<svg class="img-fluid" id="outputsvg" xmlns="http://www.w3.org/2000/svg" style="transform: matrix(0.455166, 0, 0, 0.455166, 0, 0); transform-origin: 50% 50%; cursor: move; max-height: none; transition: transform 200ms ease-in-out 0s;" width="202" height="201" viewBox="0 0 2020 2010"><g id="l4pK6m1Um0JGryDiqztr9qy" fill="rgb(255,255,255)" fill-opacity="0.0" style="transform: none;"><g><path id="pogcKja77" d="M0 1005 l0 -1005 1010 0 1010 0 0 1005 0 1005 -1010 0 -1010 0 0 -1005z m1051 926 c36 -37 37 -60 1 -94 -35 -34 -62 -34 -96 -1 -33 34 -33 61 1 96 34 36 57 35 94 -1z m-382 -48 c25 -21 56 -107 66 -178 l6 -50 -40 45 c-58 65 -94 142 -81 174 11 31 20 32 49 9z m720 -9 c10 -22 7 -33 -20 -84 -17 -31 -46 -73 -66 -91 l-35 -34 7 50 c10 70 43 152 68 170 29 20 32 19 46 -11z m-958 -203 c36 -37 36 -51 0 -90 -36 -39 -64 -39 -102 -1 -35 34 -33 61 7 98 34 30 60 28 95 -7z m1230 19 c29 -16 49 -62 37 -85 -15 -28 -50 -55 -71 -55 -22 0 -77 52 -77 73 0 24 50 77 72 77 10 0 28 -5 39 -10z m-776 -89 c7 -31 6 -31 -20 -19 -16 7 -24 17 -20 26 3 7 5 30 5 50 l1 37 13 -31 c8 -17 17 -45 21 -63z m275 39 c0 -36 -4 -52 -15 -57 -9 -3 -18 -3 -21 0 -6 6 24 107 32 107 2 0 4 -23 4 -50z m-468 -128 c-6 -17 -28 2 -49 42 l-16 30 35 -29 c19 -17 33 -36 30 -43z m682 56 c-29 -50 -47 -69 -57 -59 -8 8 -1 19 23 41 39 33 44 36 34 18z m-496 -123 c5 -5 -16 -85 -23 -85 -11 0 -75 43 -73 49 2 3 10 18 17 32 12 24 17 26 43 18 17 -4 33 -11 36 -14z m335 -10 l17 -35 -40 -20 c-22 -11 -40 -19 -40 -18 0 2 -7 21 -14 43 l-14 40 31 12 c18 6 35 12 38 12 3 1 13 -15 22 -34z m-206 -103 c-26 -5 -27 -3 -14 52 l11 50 11 -50 c9 -44 9 -49 -8 -52z m-789 34 c26 -13 65 -41 87 -61 l40 -36 -50 5 c-80 7 -163 43 -180 76 -13 26 -13 29 3 33 35 10 54 6 100 -17z m1666 18 c60 -23 -48 -95 -166 -110 l-53 -6 30 30 c33 35 131 92 157 92 9 0 23 -3 32 -6z m-1407 -35 c30 -19 33 -23 18 -31 -9 -6 -17 -8 -18 -6 -1 1 -13 15 -26 31 -29 33 -21 35 26 6z m1084 3 c-16 -30 -40 -47 -52 -35 -7 7 0 17 23 31 40 26 41 26 29 4z m-793 -109 c-10 -13 -14 -12 -25 3 -20 27 -16 35 12 22 20 -9 23 -14 13 -25z m501 3 c-9 -20 -15 -23 -26 -15 -18 16 -16 24 10 36 28 13 30 11 16 -21z m199 -52 c5 -3 -18 -74 -24 -74 -2 0 -22 7 -44 16 l-40 16 22 39 21 38 31 -16 c17 -8 33 -17 34 -19z m-842 -5 c18 -35 12 -45 -34 -58 -35 -11 -37 -9 -46 35 -6 25 -3 32 16 42 36 17 46 14 64 -19z m522 -40 l72 -70 0 -75 0 -75 -70 -69 -69 -70 -77 0 -76 0 -69 68 -69 69 0 75 0 75 68 71 67 70 75 1 76 1 72 -71z m-724 -5 c4 -9 4 -19 1 -22 -6 -6 -115 26 -115 34 0 2 24 4 54 4 41 0 55 -4 60 -16z m1236 -4 c-42 -18 -80 -25 -80 -16 0 28 16 36 69 35 l56 0 -45 -19z m-1491 -91 c38 -37 38 -49 5 -88 -30 -36 -61 -39 -96 -11 -41 32 -42 58 -3 97 41 41 55 41 94 2z m1760 5 c46 -38 38 -89 -18 -118 -25 -13 -31 -13 -52 2 -57 39 -62 70 -20 113 36 36 51 36 90 3z m-1252 -71 c-3 -2 -25 1 -48 8 l-44 12 45 12 c41 10 45 10 48 -8 2 -10 1 -21 -1 -24z m730 16 c-6 -4 -27 -10 -44 -14 -30 -6 -33 -4 -33 17 0 24 1 24 45 14 25 -6 39 -13 32 -17z m-981 -125 c-3 -9 -6 -20 -6 -25 0 -5 -28 -9 -62 -9 -34 0 -59 2 -56 5 6 6 109 44 122 45 4 0 5 -7 2 -16z m1262 -19 c2 -2 -17 -7 -43 -11 -35 -5 -49 -3 -56 7 -21 33 -10 38 44 22 28 -8 54 -17 55 -18z m-1079 14 c40 -14 39 -27 -5 -87 -1 -2 -16 4 -33 13 -27 13 -30 20 -25 43 12 48 13 48 63 31z m844 4 c2 -5 7 -20 11 -35 5 -23 2 -30 -23 -43 -17 -8 -32 -15 -35 -15 -7 0 -36 56 -36 69 0 17 75 38 83 24z m-684 -107 c10 -12 7 -18 -19 -31 l-31 -16 16 30 c18 36 19 36 34 17z m506 -34 c-2 -2 -13 2 -25 8 -18 9 -19 14 -9 26 11 13 14 12 25 -8 7 -13 11 -24 9 -26z m-945 -1 c0 -15 -68 -70 -120 -96 -49 -25 -100 -26 -100 -3 0 40 50 73 144 93 77 17 76 17 76 6z m1478 -23 c76 -24 109 -61 77 -84 -10 -8 -23 -14 -28 -14 -33 0 -191 105 -182 121 6 9 64 -1 133 -23z m-248 -52 l25 -29 -42 23 c-34 19 -40 26 -31 37 6 8 14 10 17 6 4 -4 17 -21 31 -37z m-1062 23 c-2 -5 -19 -20 -38 -32 l-34 -21 24 32 c22 30 56 45 48 21z m528 -15 c-3 -9 -9 -34 -13 -57 l-6 -41 -13 50 c-17 65 -18 64 12 64 20 0 25 -4 20 -16z m-155 -64 c7 -22 10 -42 8 -44 -2 -2 -18 -7 -36 -10 -29 -7 -33 -4 -48 24 -9 18 -15 33 -13 35 8 6 64 34 70 35 4 0 13 -18 19 -40z m327 20 c32 -20 32 -20 16 -51 -12 -24 -20 -30 -37 -25 -12 3 -30 6 -40 6 -19 0 -18 7 4 68 10 27 15 27 57 2z m-504 -142 c-3 -4 -19 -17 -37 -30 -18 -12 -27 -16 -21 -8 5 8 18 28 28 44 14 21 20 25 26 15 5 -7 7 -16 4 -21z m656 -4 c27 -43 23 -50 -12 -19 -17 15 -26 30 -22 39 8 22 9 21 34 -20z m-936 -35 c41 -32 49 -54 32 -87 -21 -41 -62 -57 -92 -37 -38 25 -57 60 -45 84 11 20 58 61 71 61 4 0 19 -9 34 -21z m1264 -12 c35 -40 35 -56 -2 -93 -41 -41 -55 -42 -95 -5 -39 37 -39 55 2 96 38 38 62 38 95 2z m-788 -5 c0 -5 -8 -31 -17 -58 l-18 -49 -5 45 c-4 33 -2 48 9 58 17 14 31 16 31 4z m269 -61 l-1 -56 -14 34 c-8 18 -17 46 -21 61 -5 25 -3 28 16 23 18 -5 21 -12 20 -62z m-425 -68 c-10 -73 -42 -150 -72 -173 l-26 -21 -14 26 c-12 23 -10 32 11 78 22 46 90 137 103 137 3 0 2 -21 -2 -47z m610 -37 c43 -67 56 -105 43 -133 -28 -64 -116 82 -117 196 0 24 0 24 20 6 11 -10 35 -41 54 -69z m-307 -76 c57 -34 53 -94 -7 -125 -34 -18 -59 -10 -84 27 -24 34 -19 63 15 92 37 31 36 31 76 6z"></path></g></g><g id="lbq00cRarU2fKIY3hzYIAj" fill="rgb(110,134,15)" style="transform: none;"><g><path id="pwNt4apMh" d="M593 1913 c-22 -54 -20 -80 13 -147 26 -54 123 -166 143 -166 22 0 27 90 10 172 -22 100 -44 136 -95 158 -25 11 -48 20 -50 20 -3 0 -12 -17 -21 -37z"></path><path id="pPe6sHQi" d="M1340 1928 c-39 -20 -48 -31 -69 -83 -28 -71 -42 -227 -21 -240 18 -11 113 88 149 156 17 31 31 70 31 87 0 33 -26 102 -38 102 -4 0 -28 -10 -52 -22z"></path><path id="puDNKL7MV" d="M808 1767 c11 -53 12 -87 5 -135 -9 -62 -9 -64 17 -77 14 -7 43 -17 64 -21 l39 -7 -8 49 c-10 70 -38 146 -73 196 -54 78 -60 77 -44 -5z"></path><path id="pPLfYqmmn" d="M1180 1803 c-18 -20 -44 -61 -57 -90 -26 -56 -51 -169 -40 -180 4 -3 32 1 62 11 l55 17 -6 87 c-4 60 -1 103 9 140 8 28 13 52 12 52 -2 0 -18 -17 -35 -37z"></path><path id="p1FeJpUPyi" d="M560 1709 c0 -77 42 -183 98 -249 l29 -35 22 35 c41 66 39 74 -30 137 -34 32 -75 78 -91 102 l-28 45 0 -35z"></path><path id="p4KvJDNes" d="M1417 1695 c-16 -25 -57 -71 -92 -103 l-64 -57 26 -52 c15 -29 30 -53 35 -53 15 0 77 94 98 148 18 47 38 162 29 162 -2 0 -17 -20 -32 -45z"></path><path id="p5rhwCMGj" d="M780 1494 c-5 -13 -20 -41 -34 -63 l-25 -40 52 -32 c28 -17 65 -32 82 -33 28 -1 31 3 47 49 31 96 31 95 -45 120 l-69 22 -8 -23z"></path><path id="p10jw9CuDY" d="M1145 1496 c-33 -11 -61 -21 -62 -21 -6 -2 25 -113 38 -137 l14 -28 60 29 c96 47 93 40 54 115 -19 36 -36 65 -39 65 -3 -1 -32 -11 -65 -23z"></path><path id="pvxZY5FXO" d="M958 1403 c-9 -37 -19 -75 -23 -84 -8 -21 45 -32 105 -23 33 5 40 10 34 23 -4 9 -15 45 -24 81 -16 60 -20 65 -46 68 -28 3 -30 0 -46 -65z"></path><path id="paV08j1eR" d="M300 1421 c53 -34 93 -71 136 -125 l30 -38 52 26 c29 14 52 30 52 35 0 16 -64 63 -116 87 -47 21 -146 44 -183 44 -9 0 4 -13 29 -29z"></path><path id="ptyWfGBBZ" d="M1653 1439 c-24 -4 -64 -17 -90 -29 -46 -20 -132 -79 -133 -91 0 -12 111 -62 119 -53 4 5 24 30 44 56 20 25 64 65 98 87 55 37 58 41 33 40 -16 -1 -48 -5 -71 -10z"></path><path id="pyDE58YyZ" d="M93 1414 c-38 -16 -40 -30 -13 -84 16 -31 30 -42 77 -61 68 -26 253 -40 253 -20 0 25 -111 122 -172 151 -69 33 -97 36 -145 14z"></path><path id="pWLzZslDf" d="M1758 1394 c-65 -35 -158 -120 -158 -145 0 -18 185 -6 240 16 57 23 78 41 96 84 19 46 19 47 -26 65 -57 23 -76 20 -152 -20z"></path><path id="p7skf359y" d="M667 1332 c-15 -17 -14 -21 13 -62 17 -25 35 -60 41 -77 6 -18 14 -33 18 -33 4 0 31 24 60 54 47 47 51 55 34 60 -11 4 -46 22 -78 41 -67 41 -67 41 -88 17z"></path><path id="puuSBx5Eu" d="M1285 1334 c-11 -9 -44 -27 -73 -41 l-52 -25 21 -29 c20 -28 87 -86 92 -78 1 2 20 39 41 81 33 64 37 80 26 93 -16 19 -30 19 -55 -1z"></path><path id="p83KOfCzz" d="M555 1250 c-27 -17 -54 -31 -58 -33 -5 -1 2 -33 14 -70 21 -65 24 -68 48 -62 74 18 98 26 116 39 20 15 19 17 -15 82 -20 37 -40 69 -45 70 -6 2 -32 -10 -60 -26z"></path><path id="pga6cFwZm" d="M1371 1251 c-25 -34 -51 -94 -51 -114 0 -13 111 -57 143 -57 8 0 21 26 31 58 10 31 20 62 23 67 3 9 -32 30 -118 73 -4 2 -17 -10 -28 -27z"></path><path id="pRiH4lND3" d="M178 1197 c42 -51 194 -117 268 -117 32 0 34 2 28 28 -4 15 -12 40 -18 56 l-12 30 -109 1 c-61 0 -123 5 -140 9 -27 8 -29 8 -17 -7z"></path><path id="p18jQzq642" d="M1775 1198 c-22 -5 -79 -7 -126 -5 l-86 5 -17 -55 c-10 -30 -15 -58 -11 -61 11 -11 131 16 185 42 60 29 134 86 110 85 -8 -1 -33 -5 -55 -11z"></path><path id="pFB8b24H4" d="M635 1058 c-102 -34 -105 -36 -105 -63 0 -19 5 -25 23 -25 12 0 52 -11 90 -24 l67 -23 0 79 c0 43 -3 78 -7 77 -5 0 -35 -10 -68 -21z"></path><path id="p19UW7oGac" d="M1300 1003 l0 -80 68 23 c37 13 75 24 85 24 12 0 17 8 17 30 0 24 -5 31 -27 36 -29 6 -96 27 -125 39 -16 6 -18 -1 -18 -72z"></path><path id="pZDGWrMhM" d="M402 919 c-68 -11 -147 -49 -198 -93 l-39 -35 35 10 c19 5 82 9 139 8 l103 -3 13 31 c7 16 16 44 20 61 7 36 11 35 -73 21z"></path><path id="pXVUcXtq5" d="M1533 901 c10 -49 36 -103 47 -96 15 9 180 7 223 -4 34 -8 36 -7 25 7 -40 48 -153 99 -262 117 l-39 6 6 -30z"></path><path id="pVjSAvB6x" d="M511 855 c-12 -37 -20 -68 -19 -69 2 0 30 -15 64 -32 l61 -32 31 52 c17 28 34 63 37 77 6 23 2 28 -34 42 -22 9 -58 19 -79 23 l-39 6 -22 -67z"></path><path id="pmaH0YN5p" d="M1373 899 c-31 -12 -53 -27 -53 -35 0 -15 31 -81 57 -121 l14 -22 62 32 c34 18 63 33 65 33 1 1 -7 31 -19 68 -20 59 -24 66 -48 65 -14 0 -50 -9 -78 -20z"></path><path id="p14Lzzct22" d="M726 822 c-4 -10 -21 -44 -40 -75 l-34 -56 22 -20 22 -21 37 26 c21 14 56 33 79 43 l42 17 -50 52 c-54 56 -69 62 -78 34z"></path><path id="p13HUuMYS8" d="M1204 788 l-48 -51 42 -18 c23 -10 58 -29 79 -43 l37 -26 22 21 22 20 -34 51 c-19 28 -37 61 -40 74 -9 36 -26 30 -80 -28z"></path><path id="pxoWh8FKk" d="M224 756 c-86 -20 -121 -40 -144 -86 -29 -58 -26 -66 31 -85 l51 -17 71 35 c67 33 189 139 176 152 -13 13 -130 13 -185 1z"></path><path id="pupxVYCFI" d="M1628 763 c-16 -2 -28 -8 -28 -12 0 -13 92 -102 130 -126 19 -12 56 -30 81 -39 46 -17 48 -17 94 3 40 18 46 23 40 43 -18 59 -41 83 -101 104 -61 22 -167 36 -216 27z"></path><path id="pi51wWSiM" d="M416 685 c-26 -31 -71 -71 -99 -90 l-52 -35 37 0 c52 0 150 33 207 69 79 51 80 56 22 85 -28 15 -54 26 -59 26 -4 0 -30 -25 -56 -55z"></path><path id="p19vQOONJS" d="M1485 719 c-58 -31 -59 -34 -23 -64 54 -46 151 -86 221 -92 l62 -5 -48 32 c-26 17 -71 58 -100 91 -30 32 -58 59 -63 59 -5 0 -27 -9 -49 -21z"></path><path id="p1DnPURRfF" d="M930 702 c0 -5 9 -35 20 -67 11 -32 20 -69 20 -82 0 -21 4 -24 31 -21 30 3 33 7 49 68 10 36 21 75 25 88 7 21 6 22 -69 22 -42 0 -76 -4 -76 -8z"></path><path id="p3iHmvwHH" d="M798 660 c-31 -16 -60 -34 -63 -40 -4 -6 6 -37 22 -68 15 -31 29 -58 29 -60 1 -2 33 6 72 18 l70 21 -9 39 c-14 61 -40 120 -53 120 -6 -1 -37 -14 -68 -30z"></path><path id="pFUSXVkTA" d="M1121 671 c-15 -28 -42 -133 -35 -140 3 -3 24 -11 47 -17 23 -7 52 -15 64 -19 19 -6 26 1 53 56 36 70 36 69 -40 108 -61 32 -78 34 -89 12z"></path><path id="p19q7F5ym7" d="M657 545 c-57 -72 -97 -176 -96 -255 l0 -35 20 38 c21 40 97 122 138 150 23 15 24 19 13 54 -7 21 -20 48 -30 60 l-17 23 -28 -35z"></path><path id="pL4AIl4Tj" d="M1285 518 l-25 -53 37 -30 c54 -43 92 -83 126 -135 l29 -45 -6 57 c-3 32 -15 83 -27 113 -21 57 -74 135 -97 143 -7 2 -22 -18 -37 -50z"></path><path id="pdeDoiuFN" d="M865 462 l-50 -17 -1 -110 c0 -60 -6 -123 -13 -139 -6 -16 -10 -31 -7 -33 8 -9 86 111 105 161 21 58 37 156 24 156 -4 -1 -30 -9 -58 -18z"></path><path id="pBt9aY7Zi" d="M1080 452 c0 -78 45 -188 108 -262 l30 -35 -15 65 c-10 44 -13 90 -9 142 l5 78 -32 13 c-18 8 -44 17 -59 21 -26 6 -28 4 -28 -22z"></path><path id="ptiQoK2Sz" d="M721 384 c-54 -45 -108 -120 -130 -179 -20 -52 -20 -56 -3 -100 16 -44 19 -46 47 -41 48 10 78 39 103 99 25 62 39 189 25 225 l-9 24 -33 -28z"></path><path id="pKkZxmW9E" d="M1246 394 c-9 -24 -7 -124 4 -172 18 -77 48 -127 86 -145 49 -24 61 -21 80 15 37 71 -26 212 -130 291 -29 22 -35 24 -40 11z"></path></g></g><g id="l2CPyOMwBjw6Q8zffVGm35G" fill="rgb(90,111,7)" style="transform: none;"><g><path id="pUMRihOmf" d="M975 1993 c-32 -8 -74 -54 -81 -89 -13 -72 58 -143 130 -130 38 7 81 49 90 88 17 73 -64 150 -139 131z"></path><path id="pTtQJoxKj" d="M330 1722 c-88 -44 -79 -171 15 -202 73 -24 145 29 145 107 0 47 -22 81 -66 99 -43 18 -52 18 -94 -4z"></path><path id="pJidlHS4V" d="M1584 1730 c-37 -15 -64 -59 -64 -105 0 -53 28 -91 79 -106 69 -20 141 34 141 106 0 78 -84 134 -156 105z"></path><path id="pqf1HMoHF" d="M44 1076 c-52 -52 -44 -127 18 -167 110 -68 229 79 137 170 -25 26 -39 31 -76 31 -38 0 -50 -5 -79 -34z"></path><path id="p11YvqlcRM" d="M1809 1081 c-51 -51 -40 -138 21 -174 82 -49 184 23 166 117 -16 83 -127 116 -187 57z"></path><path id="p165c4HTKN" d="M1440 1025 c0 -8 7 -15 15 -15 8 0 15 4 15 9 0 5 -7 11 -15 15 -9 3 -15 0 -15 -9z"></path><path id="pFQ9Kbfkl" d="M304 456 c-28 -28 -34 -42 -34 -76 0 -57 50 -110 104 -110 74 0 116 43 116 116 0 54 -53 104 -110 104 -34 0 -48 -6 -76 -34z"></path><path id="pwbNemECk" d="M1555 457 c-30 -30 -35 -42 -35 -82 0 -40 5 -51 31 -76 25 -23 40 -29 76 -29 38 0 50 5 80 35 33 33 35 39 30 81 -7 62 -39 94 -101 101 -42 5 -48 3 -81 -30z"></path><path id="p1Ah0xxVT1" d="M931 204 c-76 -64 -31 -194 68 -194 84 0 139 78 107 154 -28 66 -119 87 -175 40z"></path></g></g><g id="lfFWiJ0sWYhrZxqVeopi84" fill="rgb(147,173,23)" style="transform: none;"><g><path id="pZJlWh20Z" d="M830 1180 l-73 -75 -1 -106 -1 -106 42 -34 c24 -18 55 -50 69 -69 l27 -35 112 0 112 0 27 38 c16 21 47 52 69 69 l42 31 -1 107 -1 106 -74 73 -74 72 -101 2 -100 2 -74 -75z"></path></g></g></svg>